PathFileType	4	(X/Y/Z)	C:/Users/opensim2020/Desktop/walking_exp_matlab/subject01_walking11_straight_04.trc																																																																																																																																		
DataRate	CameraRate	NumFrames	NumMarkers	Units	OrigDataRate	OrigDataStartFrame	OrigNumFrames																																																																																																																														
100	100	4	44	mm	100	3904	278																																																																																																																														
Frame#	Time	LFHD			RFHD			LBHD			RBHD			C7			T10			CLAV			STRN			RBAK			LSHO			LUPA			LELB			LFRM			LWRA			LWRB			LFIN			RSHO			RUPA			RELB			RFRM			RWRA			RWRB			RFIN			LASI			RASI			LPSI			RPSI			LTHI			LKNE			LTIB			LANK			LHEE			LTOE			RTHI			RKNE			RTIB			RANK			RHEE			RTOE			*39			*40			*41			*42			*43		
		X1	Y1	Z1	X2	Y2	Z2	X3	Y3	Z3	X4	Y4	Z4	X5	Y5	Z5	X6	Y6	Z6	X7	Y7	Z7	X8	Y8	Z8	X9	Y9	Z9	X10	Y10	Z10	X11	Y11	Z11	X12	Y12	Z12	X13	Y13	Z13	X14	Y14	Z14	X15	Y15	Z15	X16	Y16	Z16	X17	Y17	Z17	X18	Y18	Z18	X19	Y19	Z19	X20	Y20	Z20	X21	Y21	Z21	X22	Y22	Z22	X23	Y23	Z23	X24	Y24	Z24	X25	Y25	Z25	X26	Y26	Z26	X27	Y27	Z27	X28	Y28	Z28	X29	Y29	Z29	X30	Y30	Z30	X31	Y31	Z31	X32	Y32	Z32	X33	Y33	Z33	X34	Y34	Z34	X35	Y35	Z35	X36	Y36	Z36	X37	Y37	Z37	X38	Y38	Z38	X39	Y39	Z39	X40	Y40	Z40	X41	Y41	Z41	X42	Y42	Z42	X43	Y43	Z43	X44	Y44	Z44
																																																																																																																																					
35	0.34	-766.79205	1667.68896	1029.42114	-733.71216	1674.78979	1139.72058	-881.28101	1629.23169	1059.06091	-850.29449	1636.24243	1176.1543	-917.96204	1433.35815	1091.45911	-959.48053	1141.25281	1103.49255	-774.83917	1364.31079	1099.23792	-734.20947	1208.41382	1099.50269	-980.83197	1241.10339	1169.57764	-828.40765	1397.29724	934.42047	-882.34857	1216.80005	853.74646	-918.02985	1068.64453	858.57983	-889.84479	958.25018	831.73303	-816.15131	839.3866	842.84631	-873.51892	836.78766	825.55157	-829.81195	764.32227	811.62872	-850.3468	1395.50769	1244.33838	-899.05011	1198.76123	1354.4054	-882.18311	1073.38672	1366.96106	-821.25458	967.63672	1397.42419	-712.21283	878.81714	1372.81079	-750.44153	868.92444	1416.11401	-693.18506	804.01855	1411.00818	-788.62134	936.08783	1005.35217	-804.00793	924.99683	1221.63245	-977.72345	948.9397	1043.6405	-985.77277	947.86066	1188.32385	-759.32239	617.29443	923.28442	-733.58752	486.92273	941.71722	-728.89124	301.85611	929.26056	-673.08392	84.8574	973.59766	-698.03619	41.82347	1032.4071	-527.85864	91.56584	954.742	-889.95502	594.9118	1260.37561	-898.80878	435.3631	1232.14893	-983.93384	280.27765	1236.81897	-1056.026	88.04729	1186.40576	-1112.36279	56.34273	1137.54065	-922.13428	39.26534	1183.76257	-747.65668	1708.48682	1118.25183	-1973.17139	1023.54669	3101.96509	-2012.56653	1021.95764	3140.74536	NaN	NaN	NaN	NaN	NaN	NaN
36	0.35	-759.6358	1666.92505	1027.55688	-726.63989	1674.17737	1138.005	-874.21027	1628.54468	1057.3584	-843.25592	1635.77698	1174.41687	-910.93219	1432.73792	1089.99976	-952.81915	1140.74048	1102.0675	-767.99011	1363.59058	1097.85046	-727.2738	1207.79138	1098.61316	-974.06873	1240.61084	1168.23022	-821.29535	1396.46948	933.10016	-875.35156	1215.90491	852.67847	-911.1911	1067.85327	857.64386	-882.57074	957.34442	830.90631	-808.81879	838.58832	842.13879	-866.20099	835.92273	824.96478	-822.55945	763.70367	810.8902	-843.43536	1394.89001	1243.02747	-892.17487	1198.22742	1353.07739	-875.26611	1072.86072	1365.80139	-814.04761	967.40912	1396.51624	-704.48999	879.06525	1372.01855	-742.74792	868.94629	1415.25427	-685.12732	804.38672	1410.20203	-781.09119	935.2644	1004.82269	-797.435	924.6568	1221.13635	-970.34491	948.09186	1042.03943	-979.10681	947.41107	1186.69714	-752.11066	616.46991	923.05139	-726.4566	486.27411	941.51587	-719.86188	301.43842	928.35645	-662.77386	84.56446	972.25092	-687.46069	41.36656	1030.9939	-517.1532	92.26965	954.87177	-884.82568	594.68237	1260.09851	-894.37231	435.0239	1232.12585	-981.27423	280.90521	1237.05627	-1055.11548	89.09752	1186.46228	-1112.03064	58.18465	1137.96716	-921.99817	39.32064	1183.82129	-740.49799	1707.98743	1116.54053	-1973.1748	1023.39032	3102.00952	-2012.59875	1022.10822	3140.62207	NaN	NaN	NaN	NaN	NaN	NaN
37	0.36	-752.50964	1666.17151	1025.80774	-719.56195	1673.58997	1136.16589	-866.95917	1627.80847	1055.58228	-836.20709	1635.32031	1172.57556	-903.99426	1432.11157	1088.47815	-945.71826	1140.08044	1100.55847	-760.96533	1362.95569	1096.59888	-720.26343	1207.09973	1097.45801	-967.25677	1240.11633	1166.74475	-814.14124	1395.77661	931.64063	-868.27753	1215.0271	851.45758	-903.90887	1066.90491	856.65649	-875.16577	956.42169	829.96436	-801.26434	837.80719	841.37958	-858.64722	835.02075	823.99304	-814.94672	762.9696	810.04834	-836.55176	1394.3302	1241.50354	-885.38751	1197.65991	1351.56824	-868.41528	1072.32178	1364.46033	-806.84436	966.95844	1395.33704	-696.88934	879.17786	1371.09216	-735.2298	868.87091	1414.21899	-677.28186	804.73322	1409.46704	-773.37787	934.54572	1004.13812	-790.61084	924.34894	1220.65491	-962.87372	947.26306	1040.36719	-972.37201	946.88184	1184.93628	-744.20801	615.82336	923.00452	-718.86548	485.83334	941.39166	-711.36884	300.9614	927.60181	-653.22839	84.27694	971.42401	-678.66882	40.80632	1029.65979	-507.48404	92.11932	955.40717	-879.4436	594.67932	1259.87036	-889.7124	434.80545	1232.04846	-978.37213	281.61978	1237.18774	-1054.38367	90.46921	1186.86267	-1111.50549	60.13543	1138.41016	-921.92578	39.34117	1184.01648	-733.39355	1707.24219	1114.58203	-1973.21606	1023.2879	3101.98535	-2012.54053	1021.97687	3140.75269	NaN	NaN	NaN	NaN	NaN	NaN
38	0.37	-745.28906	1665.44226	1023.95367	-712.41113	1672.9989	1134.2207	-859.84338	1627.24475	1053.68445	-829.11597	1634.93481	1170.76147	-897.00873	1431.51416	1086.76404	-938.58411	1139.46143	1098.95227	-754.09119	1362.39966	1095.02576	-713.21936	1206.55212	1096.32288	-960.43396	1239.64026	1165.17786	-806.95935	1395.0365	930.07611	-860.97089	1214.16956	850.18945	-896.39307	1065.9895	855.53448	-867.55011	955.47174	829.04846	-793.60248	836.97858	840.5835	-850.99127	834.1701	823.41284	-807.05243	762.14319	809.19202	-829.84479	1393.75745	1239.87256	-878.6142	1197.08276	1349.93982	-861.5556	1071.81335	1362.97266	-799.71802	966.72168	1394.06299	-689.39874	879.22571	1370.07678	-727.81329	868.79126	1413.08484	-669.54041	804.95355	1408.68396	-765.70752	933.9447	1003.41638	-783.85553	924.1579	1219.86426	-955.36603	946.49762	1038.70422	-965.47211	946.53717	1183.21631	-735.72461	615.24939	923.2879	-710.84338	485.53613	941.40479	-703.38208	300.31836	927.13947	-645.43231	83.54938	970.70618	-671.54321	40.01291	1028.43726	-499.33774	91.33968	956.10052	-873.74982	594.49384	1259.36841	-884.7489	434.58466	1231.79871	-975.22498	282.33588	1237.29871	-1053.7019	92.10834	1187.16809	-1111.06738	62.42227	1138.97168	-921.73535	39.36641	1184.08179	-726.25177	1706.65625	1112.66614	-1973.02539	1023.40094	3101.94531	-2012.51636	1021.98022	3140.71216	NaN	NaN	NaN	NaN	NaN	NaN
